<svg xmlns="http://www.w3.org/2000/svg" version="1.1" xmlns:xlink="http://www.w3.org/1999/xlink" width="1000" height="1000"><g clip-path="url(#SvgjsClipPath1122)"><rect width="1000" height="1000" fill="#ffffff"></rect><g transform="matrix(33.333333333333336,0,0,33.333333333333336,100,100)"><svg xmlns="http://www.w3.org/2000/svg" version="1.1" xmlns:xlink="http://www.w3.org/1999/xlink" width="24" height="24"><svg id="Layer_1" xmlns="http://www.w3.org/2000/svg" version="1.1" viewBox="0 0 24 24">
  <!-- Generator: Adobe Illustrator 30.0.0, SVG Export Plug-In . SVG Version: 2.1.1 Build 123)  -->
  <defs>
    <style>
      .st0 {
        fill: #6b00e4;
      }
    </style>
  <clipPath id="SvgjsClipPath1122"><rect width="1000" height="1000" x="0" y="0" rx="500" ry="500"></rect></clipPath></defs>
  <path class="st0" d="M12,23c-6.1,0-11-4.9-11-11S5.9,1,12,1s11,4.9,11,11-4.9,11-11,11ZM12,3C7,3,3,7,3,12s4,9,9,9,9-4,9-9S17,3,12,3Z"></path>
  <path class="st0" d="M12,23c-.3,0-.5-.1-.7-.3-5.7-6-5.7-15.4,0-21.4.2-.2.5-.3.7-.3h0c.3,0,.5.1.7.3,5.7,6,5.7,15.4,0,21.4-.2.2-.5.3-.7.3ZM12,3.5c-4,4.9-4,12,0,17,4-4.9,4-12,0-17Z"></path>
  <path class="st0" d="M22,13H2c-.6,0-1-.4-1-1s.4-1,1-1h20c.6,0,1,.4,1,1s-.4,1-1,1Z"></path>
</svg></svg></g></g></svg>